<svg width="140" height="50" viewBox="0 0 140 50" fill="none" xmlns="http://www.w3.org/2000/svg">
  <!-- SSL Text with golf ball replacing L -->
  <text x="10" y="32" font-family="Arial, sans-serif" font-weight="bold" font-size="28" fill="#166534">SS</text>
  
  <!-- Golf Ball replacing the L -->
  <g transform="translate(75, 8)">
    <!-- Main golf ball circle -->
    <circle cx="20" cy="20" r="20" fill="white" stroke="#166534" stroke-width="2"/>
    
    <!-- Dimples on the golf ball -->
    <circle cx="16" cy="16" r="2" fill="#166534"/>
    <circle cx="24" cy="16" r="2" fill="#166534"/>
    <circle cx="20" cy="20" r="2" fill="#166534"/>
    <circle cx="16" cy="24" r="2" fill="#166534"/>
    <circle cx="24" cy="24" r="2" fill="#166534"/>
    <circle cx="18" cy="18" r="1.5" fill="#166534"/>
    <circle cx="22" cy="18" r="1.5" fill="#166534"/>
    <circle cx="18" cy="22" r="1.5" fill="#166534"/>
    <circle cx="22" cy="22" r="1.5" fill="#166534"/>
    <circle cx="14" cy="20" r="1.5" fill="#166534"/>
    <circle cx="26" cy="20" r="1.5" fill="#166534"/>
    <circle cx="20" cy="14" r="1.5" fill="#166534"/>
    <circle cx="20" cy="26" r="1.5" fill="#166534"/>
    
    <!-- Chipped/bite mark section - more pronounced and jagged -->
    <path d="M28 22 Q34 20 32 28 Q30 32 24 30 Q22 28 24 26 Q26 24 28 22" fill="#166534"/>
    <path d="M30 24 Q32 22 31 26 Q30 28 28 26 Q27 25 28 24 Q29 23 30 24" fill="#166534"/>
    
    <!-- White dimples in the chipped section -->
    <circle cx="26" cy="24" r="1" fill="white"/>
    <circle cx="28" cy="26" r="1" fill="white"/>
    <circle cx="24" cy="26" r="0.8" fill="white"/>
    <circle cx="26" cy="28" r="0.6" fill="white"/>
  </g>
</svg> 