<svg width="120" height="40" viewBox="0 0 120 40" fill="none" xmlns="http://www.w3.org/2000/svg">
  <!-- SSL Text -->
  <text x="10" y="28" font-family="Arial, sans-serif" font-weight="bold" font-size="24" fill="#166534">SSL</text>
  
  <!-- Golf Ball replacing the O -->
  <g transform="translate(70, 8)">
    <!-- Main golf ball circle -->
    <circle cx="16" cy="16" r="16" fill="white" stroke="#166534" stroke-width="2"/>
    
    <!-- Dimples on the golf ball -->
    <circle cx="12" cy="12" r="2" fill="#166534"/>
    <circle cx="20" cy="12" r="2" fill="#166534"/>
    <circle cx="16" cy="16" r="2" fill="#166534"/>
    <circle cx="12" cy="20" r="2" fill="#166534"/>
    <circle cx="20" cy="20" r="2" fill="#166534"/>
    <circle cx="14" cy="14" r="1.5" fill="#166534"/>
    <circle cx="18" cy="14" r="1.5" fill="#166534"/>
    <circle cx="14" cy="18" r="1.5" fill="#166534"/>
    <circle cx="18" cy="18" r="1.5" fill="#166534"/>
    
    <!-- Chipped/bite mark section -->
    <path d="M24 20 Q28 18 26 24 Q24 28 20 26 Q18 24 20 22 Q22 20 24 20" fill="#166534"/>
    
    <!-- White dimples in the chipped section -->
    <circle cx="22" cy="22" r="1" fill="white"/>
    <circle cx="24" cy="24" r="1" fill="white"/>
    <circle cx="20" cy="24" r="0.8" fill="white"/>
  </g>
</svg> 